<?xml version="1.0" encoding="UTF-8"?>
<svg xmlns="http://www.w3.org/2000/svg" xmlns:xlink="http://www.w3.org/1999/xlink" width="52pt" height="52pt" viewBox="0 0 52 52" version="1.1">
<g id="surface16758354">
<path style=" stroke:none;fill-rule:nonzero;fill:rgb(100%,7.45098%,0%);fill-opacity:1;" d="M 3.625 2 C 2.742188 2 2 2.726562 2 3.625 L 2 48.375 C 2 49.273438 2.742188 50 3.625 50 L 48.375 50 C 49.257812 50 50 49.273438 50 48.375 L 50 3.625 C 50 2.726562 49.257812 2 48.375 2 Z M 22 10 C 28.625 10 34 15.375 34 22 C 34 24.59375 33.148438 26.976562 31.75 28.9375 L 42.25 39.375 C 42.5 39.617188 42.453125 40.359375 41.375 41.4375 C 40.296875 42.515625 39.65625 42.53125 39.375 42.25 C 39.09375 41.96875 28.9375 31.75 28.9375 31.75 C 26.976562 33.148438 24.59375 34 22 34 C 15.375 34 10 28.625 10 22 C 10 15.375 15.375 10 22 10 Z M 22 14 C 17.578125 14 14 17.578125 14 22 C 14 26.421875 17.578125 30 22 30 C 26.421875 30 30 26.421875 30 22 C 30 17.578125 26.421875 14 22 14 Z M 22 14 "/>
</g>
</svg>
